# xmcd database file
#
# Track frame offsets:
# 150
# 12301
# 24473
# 36819
# 47756
# 60105
# 72189
# 86573
# 98019
# 108526
# 121478
# 133804
# 145972
# 160647
#
# Disc length: 2289 seconds
#
# Revision: 11
# Processed by: cddbd v1.5.1PL2 Copyright (c) Steve Scherf et al.
# Submitted via: CD-Runner 2006
#
DISCID=b408ef0e
DTITLE=The Platters - The Platters Golden Legends
DYEAR=2005
DGENRE=Soul
TTITLE0=The Great Pretender
TTITLE1=My Prayer
TTITLE2=Only You
TTITLE3=The Magic Touch
TTITLE4=Twilight Time
TTITLE5=Smoke Gets In Your Eyes
TTITLE6=Harbor Lights
TTITLE7=Heaven On Earth
TTITLE8=Red Sails In The Sunset
TTITLE9=I'm Sorry
TTITLE10=With This Ring
TTITLE11=You'll Never Know
TTITLE12=The Wonder of You
TTITLE13=It Isn't Right
EXTD=
EXTT0=
EXTT1=
EXTT2=
EXTT3=
EXTT4=
EXTT5=
EXTT6=
EXTT7=
EXTT8=
EXTT9=
EXTT10=
EXTT11=
EXTT12=
EXTT13=
PLAYORDER=
